<?xml version="1.0" encoding="UTF-8"?>
<svg width="32px" height="32px" viewBox="0 0 32 32" version="1.1" xmlns="http://www.w3.org/2000/svg" xmlns:xlink="http://www.w3.org/1999/xlink">
    <title>ic-roup-a-white</title>
    <g id="ic-roup-a-white" stroke="none" stroke-width="1" fill="none" fill-rule="evenodd">
        <path d="M22.9926721,5.34195995 L23.0219592,5.4572608 L25.8840941,20.1816686 C26.0232762,20.8976984 25.3782756,21.5027931 24.6900332,21.3499607 L24.5811121,21.3194364 L17.1974457,18.8135453 L15.1632182,19.2091714 L17.2355252,24.3304532 C17.4281978,24.806651 17.227857,25.3440917 16.7872604,25.5835923 L16.6813889,25.6334093 L14.6087985,26.4662557 C14.127933,26.6594859 13.5791223,26.4533345 13.3443944,25.9913037 L13.3443944,25.9913037 L10.1885482,19.7811481 C8.57573664,19.4078574 7.24069068,18.1560091 6.82896552,16.4610357 L6.78373736,16.2540266 C6.32307229,13.8841103 7.81344285,11.5873199 10.1354101,11.0232919 L10.3424192,10.9780638 L15.4801647,9.97890063 L21.3876399,4.8904465 C21.9387434,4.41567114 22.7809722,4.67272493 22.9926721,5.34195995 Z M13.3441707,20.0464732 L12.5932038,20.0972536 L14.7124829,24.2689182 L15.0048686,24.1512933 L13.3441707,20.0464732 Z M21.3874687,7.53022243 L17.0241922,11.2873258 L18.1387075,17.0210101 L23.5918851,18.8709613 L21.3874687,7.53022243 Z M15.1400959,12.081418 L10.7240372,12.9413182 C9.47712043,13.1836942 8.62817325,14.3138099 8.70546907,15.5484675 L8.72084734,15.7100383 L8.74699173,15.8724086 C8.99990588,17.1735391 10.2194325,18.0413417 11.5157119,17.8755985 L11.6780822,17.8494541 L16.0941409,16.9895539 L15.1400959,12.081418 Z" id="Combined-Shape" fill="#FFFFFF" fill-rule="nonzero"></path>
    </g>
</svg>