<?xml version="1.0" encoding="UTF-8"?>
<svg width="32px" height="32px" viewBox="0 0 32 32" version="1.1" xmlns="http://www.w3.org/2000/svg" xmlns:xlink="http://www.w3.org/1999/xlink">
    <title>ic-bot-a-black</title>
    <g id="ic-bot-a-black" stroke="none" stroke-width="1" fill="none" fill-rule="evenodd">
        <path d="M19,0 C19.5522847,-1.01453063e-16 20,0.44771525 20,1 L20,6 L26,6 C27.1045695,6 28,6.8954305 28,8 L28,24 C28,25.1045695 27.1045695,26 26,26 L6,26 C4.8954305,26 4,25.1045695 4,24 L4,8 C4,6.8954305 4.8954305,6 6,6 L17.0897124,6.0027991 C17.0798882,5.99372381 17.0702018,5.98441534 17.0606602,5.97487373 L13.5251263,2.43933983 C13.134602,2.04881554 13.134602,1.41565056 13.5251263,1.02512627 C13.9156506,0.634601974 14.5488155,0.634601974 14.9393398,1.02512627 L17.999233,4.085 L18,1 C18,0.44771525 18.4477153,1.01453063e-16 19,0 Z M26,8 L6,8 L6,24 L26,24 L26,8 Z M18,18 C18.5522847,18 19,18.4477153 19,19 C19,19.5522847 18.5522847,20 18,20 L14,20 C13.4477153,20 13,19.5522847 13,19 C13,18.4477153 13.4477153,18 14,18 L18,18 Z M11,12 C12.1045695,12 13,12.8954305 13,14 C13,15.1045695 12.1045695,16 11,16 C9.8954305,16 9,15.1045695 9,14 C9,12.8954305 9.8954305,12 11,12 Z M21,12 C22.1045695,12 23,12.8954305 23,14 C23,15.1045695 22.1045695,16 21,16 C19.8954305,16 19,15.1045695 19,14 C19,12.8954305 19.8954305,12 21,12 Z" id="Combined-Shape" fill="#000000" fill-rule="nonzero"></path>
    </g>
</svg>