<?xml version="1.0" encoding="UTF-8"?>
<svg width="32px" height="32px" viewBox="0 0 32 32" version="1.1" xmlns="http://www.w3.org/2000/svg" xmlns:xlink="http://www.w3.org/1999/xlink">
    <title>ic-bot-a-white</title>
    <g id="ic-bot-a-white" stroke="none" stroke-width="1" fill="none" fill-rule="evenodd">
        <path d="M20.767767,3 C21.3200517,3 21.767767,3.44771525 21.767767,4 L21.767,7 L22,7 C24.6887547,7 26.8818181,9.12230671 26.9953805,11.7831104 L27,12 L27,22 C27,24.7614237 24.7614237,27 22,27 L22,27 L10,27 C7.23857625,27 5,24.7614237 5,22 L5,22 L5,12 C5,9.23857625 7.23857625,7 10,7 L10,7 L17.854,7 L16.2928932,5.43933983 C15.9023689,5.04881554 15.9023689,4.41565056 16.2928932,4.02512627 C16.6834175,3.63460197 17.3165825,3.63460197 17.7071068,4.02512627 L19.767,6.085 L19.767767,4 C19.767767,3.44771525 20.2154822,3 20.767767,3 Z M22,9 L10,9 C8.34314575,9 7,10.3431458 7,12 L7,12 L7,22 C7,23.6568542 8.34314575,25 10,25 L10,25 L22,25 C23.6568542,25 25,23.6568542 25,22 L25,22 L25,12 C25,10.3431458 23.6568542,9 22,9 L22,9 Z M18,19 C18.5522847,19 19,19.4477153 19,20 C19,20.5522847 18.5522847,21 18,21 L14,21 C13.4477153,21 13,20.5522847 13,20 C13,19.4477153 13.4477153,19 14,19 L18,19 Z M12,13 C13.1045695,13 14,13.8954305 14,15 C14,16.1045695 13.1045695,17 12,17 C10.8954305,17 10,16.1045695 10,15 C10,13.8954305 10.8954305,13 12,13 Z M20,13 C21.1045695,13 22,13.8954305 22,15 C22,16.1045695 21.1045695,17 20,17 C18.8954305,17 18,16.1045695 18,15 C18,13.8954305 18.8954305,13 20,13 Z" id="Combined-Shape" fill="#FFFFFF" fill-rule="nonzero"></path>
    </g>
</svg>