<?xml version="1.0" encoding="UTF-8"?>
<svg width="32px" height="32px" viewBox="0 0 32 32" version="1.1" xmlns="http://www.w3.org/2000/svg" xmlns:xlink="http://www.w3.org/1999/xlink">
    <title>ic-discord-black</title>
    <g id="ic-discord-black" stroke="none" stroke-width="1" fill="none" fill-rule="evenodd">
        <g id="discord-icon" transform="translate(1.000000, 4.000000)" fill="#010101" fill-rule="nonzero">
            <path d="M9.55,21 C8.3,21.63 4,19.38 2.82,18.29 C2.5,16.6 5,6.32 6.71,4.61 C8.42,2.9 12,2.9 12,2.9 C12.5522847,2.9 13,2.45228475 13,1.9 C13,1.34771525 12.5522847,0.9 12,0.9 C11.82,0.9 7.56,0.9 5.29,3.19 C3.43,5.06 -0.44,17.87 1.29,19.61 C2.13,20.44 6.19,23.09 9.04,23.09 C9.52714917,23.103329 10.0104728,23.0004942 10.45,22.79 C10.940313,22.5404244 11.1369243,21.9416536 10.89,21.45 C10.6440469,20.9559191 10.0443143,20.7545164 9.55,21 Z" id="Path"></path>
            <path d="M24.71,3.19 C22.44,0.93 18.18,0.9 18,0.9 C17.4477153,0.9 17,1.34771525 17,1.9 C17,2.45228475 17.4477153,2.9 18,2.9 C19,2.9 21.89,3.21 23.29,4.61 C25,6.32 27.5,16.61 27.18,18.29 C26,19.38 21.7,21.63 20.45,21 C19.9556857,20.7545164 19.3559531,20.9559191 19.11,21.45 C18.8630757,21.9416536 19.059687,22.5404244 19.55,22.79 C19.9895272,23.0004942 20.4728508,23.103329 20.96,23.09 C23.81,23.09 27.87,20.44 28.71,19.61 C30.44,17.87 26.57,5.06 24.71,3.19 Z" id="Path"></path>
            <ellipse id="Oval" cx="11" cy="13.4" rx="2" ry="2.25"></ellipse>
            <ellipse id="Oval" cx="19" cy="13.4" rx="2" ry="2.25"></ellipse>
            <path d="M23,7.9 C23.3455015,7.90069139 23.6668845,7.72298545 23.85,7.43 C23.9910213,7.20468774 24.0365377,6.93250171 23.9764947,6.67356644 C23.9164518,6.41463117 23.7557904,6.19025446 23.53,6.05 C15.1,0.78 6.82,5.83 6.47,6.05 C6.00055796,6.34271092 5.85728908,6.96055796 6.15,7.43 C6.44271092,7.89944204 7.06055796,8.04271092 7.53,7.75 C7.83,7.56 15.11,3.15 22.47,7.75 C22.6291413,7.84862904 22.8127748,7.90060081 23,7.9 Z" id="Path"></path>
            <path d="M22.09,19.32 C22.1413773,19.4263645 22.2088352,19.5241786 22.29,19.61 C22.4777666,19.7993127 22.7333625,19.9057983 22.999998,19.9057983 C23.2666375,19.9057983 23.5222334,19.7993127 23.71,19.61 C24.4662523,18.901586 24.9270025,17.9336534 24.999998,16.9 C25.0007653,16.5176049 24.783391,16.1682534 24.44,16 C24.0975845,15.8338703 23.6905508,15.876512 23.39,16.11 C21.0230901,18.0351891 18.050429,19.059145 14.999998,19 L14.999998,19 C11.9565354,19.0430008 8.99447012,18.0167177 6.63,16.1 C6.32307175,15.8615667 5.9057941,15.8225688 5.56,16 C5.21660898,16.1682534 4.99923473,16.5176049 4.99999799,16.9 C5.0729975,17.9336534 5.53374769,18.901586 6.29,19.61 C6.4777666,19.7993127 6.73336246,19.9057983 6.99999799,19.9057983 C7.26663754,19.9057983 7.5222334,19.7993127 7.71,19.61 C7.79116479,19.5241786 7.85862274,19.4263645 7.91,19.32 C9.98802284,20.4254888 12.3062204,21.0024624 14.66,21.0000078 L15.34,21.0000078 C17.6937796,21.0024624 20.0119772,20.4254888 22.09,19.32 Z" id="Path"></path>
        </g>
    </g>
</svg>