<?xml version="1.0" encoding="UTF-8"?>
<svg width="32px" height="32px" viewBox="0 0 32 32" version="1.1" xmlns="http://www.w3.org/2000/svg" xmlns:xlink="http://www.w3.org/1999/xlink">
    <title>ic-email-white</title>
    <g id="ic-email-white" stroke="none" stroke-width="1" fill="none" fill-rule="evenodd">
        <path d="M22,6 C24.7614237,6 27,8.23857625 27,11 L27,11 L27,21 C27,23.7614237 24.7614237,26 22,26 L22,26 L10,26 C7.23857625,26 5,23.7614237 5,21 L5,21 L5,11 C5,8.23857625 7.23857625,6 10,6 L10,6 Z M25,12.201 L16.5547002,17.8320503 C16.2561229,18.0311018 15.8771884,18.0532186 15.560754,17.8984008 L15.4452998,17.8320503 L7,12.202 L7,21 C7,22.5976809 8.24891996,23.9036609 9.82372721,23.9949073 L10,24 L22,24 C23.6568542,24 25,22.6568542 25,21 L25,21 L25,12.201 Z M22,8 L10,8 C8.68820044,8 7.57305029,8.84195618 7.16546542,10.0149527 C7.2643802,10.0301134 7.36151595,10.0616366 7.45393368,10.1088578 L7.5547002,10.1679497 L16,15.797 L24.4452998,10.1679497 C24.5666563,10.0870454 24.6992653,10.0361672 24.834362,10.0135624 C24.4263209,8.84148151 23.3114297,8 22,8 L22,8 Z" id="Combined-Shape" fill="#FFFFFF" fill-rule="nonzero"></path>
    </g>
</svg>