<?xml version="1.0" encoding="UTF-8"?>
<svg width="32px" height="32px" viewBox="0 0 32 32" version="1.1" xmlns="http://www.w3.org/2000/svg" xmlns:xlink="http://www.w3.org/1999/xlink">
    <title>ic-email-black</title>
    <g id="ic-email-black" stroke="none" stroke-width="1" fill="none" fill-rule="evenodd">
        <g id="email-icon" transform="translate(3.000000, 6.000000)" fill="#000000" fill-rule="nonzero">
            <path d="M22.12,0 L3.88,0 C1.7355186,0.00551282386 0,1.74551151 0,3.89 L0,15.11 C0,17.2544885 1.7355186,18.9944872 3.88,19 L22.12,19 C24.2644814,18.9944872 26,17.2544885 26,15.11 L26,3.89 C26,1.74551151 24.2644814,0.00551282386 22.12,0 Z M22.12,2 L22.28,2 L13,8.76 L3.72,2 L3.88,2 L22.12,2 Z M24,15.11 C24.0000146,16.1499254 23.1599108,16.9944977 22.12,17 L3.88,17 C2.84008918,16.9944977 2,16.1499254 2,15.11 L2,3.89 C2.00229213,3.68931558 2.0360352,3.49023142 2.1,3.3 L12.42,10.81 C12.7714198,11.0667957 13.2485802,11.0667957 13.6,10.81 L23.91,3.3 C23.9739648,3.49023142 24.0077079,3.68931558 24.01,3.89 L24,15.11 Z" id="Shape"></path>
        </g>
    </g>
</svg>