<?xml version="1.0" encoding="UTF-8"?>
<svg width="32px" height="32px" viewBox="0 0 32 32" version="1.1" xmlns="http://www.w3.org/2000/svg" xmlns:xlink="http://www.w3.org/1999/xlink">
    <title>ic-ch-white</title>
    <defs>
        <filter id="filter-1">
            <feColorMatrix in="SourceGraphic" type="matrix" values="0 0 0 0 1.000000 0 0 0 0 1.000000 0 0 0 0 1.000000 0 0 0 1.000000 0"></feColorMatrix>
        </filter>
    </defs>
    <g id="ic-ch-white" stroke="none" stroke-width="1" fill="none" fill-rule="evenodd">
        <g filter="url(#filter-1)" id="iconfinder_radio_925810">
            <g transform="translate(4.000000, 4.000000)">
                <path d="M12,12.827389 L9.5,22.1710545 C9.16666667,23.4451907 7.16666667,22.9355363 7.5,21.6614001 L11.0833333,8.92003793 C10.4166667,8.58026828 10,7.90072896 10,7.13624724 C10,6.03199585 10.8333333,5.0976293 12,5.0976293 C13.1666667,5.0976293 14,6.03199585 14,7.13624724 C14,7.90072896 13.5833333,8.58026828 12.9166667,8.92003793 L16.5,21.6614001 C16.8333333,22.9355363 14.8333333,23.4451907 14.5,22.1710545 L12,12.827389 Z M1.91666667,0.510738935 C2.66666667,-0.678454863 4.33333333,0.425796521 3.58333333,1.61499032 C1.5,4.92774447 1.41666667,9.17486518 3.58333333,12.6575042 C4.25,13.7617555 2.66666667,14.9509493 1.91666667,13.7617555 C0.666666667,11.80808 0,9.51463483 0,7.13624724 C0,4.75785964 0.666666667,2.46441446 1.91666667,0.510738935 Z M6.25,3.05901136 C7,1.95475998 8.66666667,3.05901136 7.83333333,4.33314757 C6.66666667,6.03199585 6.75,8.32544103 7.91666667,10.0242893 C8.66666667,11.1285407 7,12.2327921 6.25,11.2134831 C4.58333333,8.7501531 4.58333333,5.52234137 6.25,3.05901136 Z M22.0833333,0.510738935 C23.3333333,2.46441446 24,4.75785964 24,7.13624724 C24,9.51463483 23.3333333,11.80808 22.0833333,13.7617555 C21.3333333,14.9509493 19.75,13.7617555 20.4166667,12.6575042 C22.5833333,9.17486518 22.5,4.92774447 20.4166667,1.61499032 C19.6666667,0.425796521 21.3333333,-0.678454863 22.0833333,0.510738935 Z M17.75,3.05901136 C19.4166667,5.52234137 19.4166667,8.7501531 17.75,11.2134831 C17,12.2327921 15.3333333,11.1285407 16.0833333,10.0242893 C17.25,8.32544103 17.3333333,6.03199585 16.1666667,4.33314757 C15.3333333,3.05901136 17,1.95475998 17.75,3.05901136 Z" id="Shape" fill="#000000" fill-rule="nonzero"></path>
            </g>
        </g>
    </g>
</svg>