<?xml version="1.0" encoding="UTF-8"?>
<svg width="32px" height="32px" viewBox="0 0 32 32" version="1.1" xmlns="http://www.w3.org/2000/svg" xmlns:xlink="http://www.w3.org/1999/xlink">
    <title>ic-matrix-white</title>
    <defs>
        <filter id="filter-1">
            <feColorMatrix in="SourceGraphic" type="matrix" values="0 0 0 0 1.000000 0 0 0 0 1.000000 0 0 0 0 1.000000 0 0 0 1.000000 0"></feColorMatrix>
        </filter>
    </defs>
    <g id="ic-matrix-white" stroke="none" stroke-width="1" fill="none" fill-rule="evenodd">
        <g filter="url(#filter-1)" id="Group-2">
            <g transform="translate(4.000000, 5.000000)">
                <g id="Group" fill="#000000">
                    <rect id="Rectangle" x="0" y="0" width="2" height="22" rx="1"></rect>
                    <rect id="Rectangle-Copy" x="0" y="0" width="4" height="2" rx="1"></rect>
                    <rect id="Rectangle-Copy-2" x="0" y="20" width="4" height="2" rx="1"></rect>
                </g>
                <g id="Group-Copy" transform="translate(22.000000, 11.000000) scale(-1, 1) translate(-22.000000, -11.000000) translate(20.000000, 0.000000)" fill="#000000">
                    <rect id="Rectangle" x="0" y="0" width="2" height="22" rx="1"></rect>
                    <rect id="Rectangle-Copy" x="0" y="0" width="4" height="2" rx="1"></rect>
                    <rect id="Rectangle-Copy-2" x="0" y="20" width="4" height="2" rx="1"></rect>
                </g>
                <path d="M7.37533232,6.76359517 L7.37533232,7.58189526 L7.37533232,7.58189526 L7.41064502,7.58189526 C7.74150142,7.08007554 8.14000872,6.69027567 8.60685334,6.41419783 C9.0733929,6.1384442 9.60819351,6 10.2105688,6 C10.7893005,6 11.3180758,6.11955808 11.7964371,6.35786368 C12.274951,6.59657456 12.6382981,7.01693267 12.8864023,7.61966751 C13.1579211,7.19290595 13.5270647,6.81615615 13.9939093,6.48974232 C14.4604489,6.16349061 15.0127152,6 15.6507845,6 C16.1351711,6 16.5838636,6.06289971 16.997701,6.18845596 C17.4109283,6.31401221 17.7653519,6.51486978 18.0607431,6.79102869 C18.3558292,7.06743076 18.5861626,7.42837458 18.7518958,7.87369803 C18.9171715,8.31983205 19,8.85626282 19,9.48420617 L19,15.5 C19,15.7761424 18.7761424,16 18.5,16 L16.9826542,16 C16.7065118,16 16.4826542,15.7761424 16.4826542,15.5 L16.4826542,10.4820906 L16.4826542,10.4820906 C16.4826542,10.1558389 16.4709087,9.84823014 16.4471889,9.55926433 C16.4233166,9.27070381 16.3586402,9.01975343 16.2523208,8.80600789 C16.145925,8.5927487 15.9891915,8.42309781 15.7827304,8.29746051 C15.5759643,8.17239059 15.2952931,8.10924772 14.9409457,8.10924772 C14.5865984,8.10924772 14.3000545,8.18187418 14.0814666,8.32574916 C13.8627261,8.47035365 13.6915777,8.65880961 13.56764,8.89079281 C13.4436261,9.12334341 13.3608738,9.38685753 13.3196121,9.68206467 C13.2780453,9.97694758 13.2575289,10.2752349 13.2575289,10.5765212 L13.2575289,15.5 C13.2575289,15.7761424 13.0336712,16 12.7575289,16 L11.2406407,16 C10.9644983,16 10.7406407,15.7761424 10.7406407,15.5 L10.7406407,10.53883 L10.7406407,10.53883 C10.7406407,10.2501074 10.7344628,9.96438385 10.7230987,9.68206467 C10.7110482,9.39942126 10.6610155,9.13898728 10.572238,8.9002764 C10.483613,8.6619708 10.335803,8.47035365 10.1291894,8.32574916 C9.92242319,8.18187418 9.61818479,8.10924772 9.21662672,8.10924772 C9.09833297,8.10924772 8.94182829,8.13753637 8.74711266,8.19419475 C8.55216823,8.25069101 8.36302027,8.3576043 8.18005012,8.51428618 C7.99669863,8.67137334 7.84034648,8.89735837 7.71038353,9.19216023 C7.5803443,9.48736737 7.51543909,9.87319548 7.51543909,10.350212 L7.51543909,15.5 C7.51543909,15.7761424 7.29158147,16 7.01543909,16 L5.5,16 C5.22385763,16 5,15.7761424 5,15.5 L5,6.76359517 C5,6.4874528 5.22385763,6.26359517 5.5,6.26359517 L6.87533232,6.26359517 C7.15147469,6.26359517 7.37533232,6.4874528 7.37533232,6.76359517 Z" id="Path" fill="#000000" fill-rule="nonzero"></path>
            </g>
        </g>
    </g>
</svg>