<?xml version="1.0" encoding="UTF-8"?>
<svg width="32px" height="32px" viewBox="0 0 32 32" version="1.1" xmlns="http://www.w3.org/2000/svg" xmlns:xlink="http://www.w3.org/1999/xlink">
    <title>ic-matrix-black</title>
    <g id="ic-matrix-black" stroke="none" stroke-width="1" fill="none" fill-rule="evenodd">
        <g id="Group" transform="translate(2.000000, 3.000000)" fill="#000000">
            <rect id="Rectangle" x="0" y="0" width="2" height="26" rx="1"></rect>
            <rect id="Rectangle-Copy" x="0" y="0" width="4" height="2" rx="1"></rect>
            <rect id="Rectangle-Copy-2" x="0" y="24" width="4" height="2" rx="1"></rect>
        </g>
        <g id="Group-Copy" transform="translate(28.000000, 16.000000) scale(-1, -1) translate(-28.000000, -16.000000) translate(26.000000, 3.000000)" fill="#000000">
            <rect id="Rectangle" x="0" y="0" width="2" height="26" rx="1"></rect>
            <rect id="Rectangle-Copy" x="0" y="0" width="4" height="2" rx="1"></rect>
            <rect id="Rectangle-Copy-2" x="0" y="24" width="4" height="2" rx="1"></rect>
        </g>
        <path d="M10.0539987,10.8349209 L10.0539987,12.0099375 L10.0539987,12.0099375 L10.0994007,12.0099375 C10.5247875,11.3723313 11.0371541,10.8770561 11.6373829,10.5262749 C12.2372194,10.1759056 12.9248202,10 13.6993027,10 C14.4433864,10 15.1232404,10.1519091 15.7382763,10.4546974 C16.3535084,10.7580006 16.820669,11.2921027 17.1396601,12.0579305 C17.4887557,11.5156923 17.9633689,11.0369984 18.5635977,10.6222608 C19.1634343,10.2077292 19.873491,10 20.6938658,10 C21.3166485,10 21.8935389,10.0799196 22.4256156,10.2394499 C22.9569078,10.3989802 23.4125953,10.6541875 23.792384,11.0050717 C24.1717803,11.356265 24.4679233,11.8148759 24.6810089,12.3806987 C24.8935062,12.9475513 25,13.6291339 25,14.4269914 L25,22.2058824 C25,22.4820247 24.7761424,22.7058824 24.5,22.7058824 L22.2634125,22.7058824 C21.9872701,22.7058824 21.7634125,22.4820247 21.7634125,22.2058824 L21.7634125,15.6948916 L21.7634125,15.6948916 C21.7634125,15.28036 21.7483112,14.8895159 21.7178143,14.5223594 C21.6871214,14.1557178 21.603966,13.8368632 21.4672696,13.5652806 C21.330475,13.294316 21.1289606,13.0787596 20.8635106,12.9191263 C20.5976683,12.7602139 20.2368054,12.6799853 19.781216,12.6799853 C19.3256265,12.6799853 18.9572129,12.7722637 18.6761713,12.9550695 C18.3949335,13.1388023 18.1748856,13.3782522 18.0155372,13.6730073 C17.8560907,13.9684834 17.7496949,14.3033013 17.6966441,14.678388 C17.6432011,15.0530628 17.6168228,15.4320631 17.6168228,15.814874 L17.6168228,22.2058824 C17.6168228,22.4820247 17.3929652,22.7058824 17.1168228,22.7058824 L14.8808237,22.7058824 C14.6046813,22.7058824 14.3808237,22.4820247 14.3808237,22.2058824 L14.3808237,15.766984 L14.3808237,15.766984 C14.3808237,15.4001365 14.3728808,15.0370995 14.3582698,14.678388 C14.3427762,14.3192647 14.2784485,13.9883603 14.1643059,13.6850571 C14.0503596,13.3822688 13.8603182,13.1388023 13.594672,12.9550695 C13.3288298,12.7722637 12.9376662,12.6799853 12.4213772,12.6799853 C12.2692852,12.6799853 12.0680649,12.7159286 11.8177163,12.787918 C11.5670734,12.8597015 11.3238832,12.9955443 11.0886359,13.1946224 C10.8528982,13.3942155 10.651874,13.6813495 10.4847788,14.0559212 C10.3175855,14.431008 10.234136,14.9212366 10.234136,15.5273281 L10.234136,22.2058824 C10.234136,22.4820247 10.0102784,22.7058824 9.73413598,22.7058824 L7.5,22.7058824 C7.22385763,22.7058824 7,22.4820247 7,22.2058824 L7,10.8349209 C7,10.5587785 7.22385763,10.3349209 7.5,10.3349209 L9.55399869,10.3349209 C9.83014107,10.3349209 10.0539987,10.5587785 10.0539987,10.8349209 Z" id="Path" fill="#000000" fill-rule="nonzero"></path>
    </g>
</svg>