<?xml version="1.0" encoding="UTF-8"?>
<svg width="32px" height="32px" viewBox="0 0 32 32" version="1.1" xmlns="http://www.w3.org/2000/svg" xmlns:xlink="http://www.w3.org/1999/xlink">
    <title>ic-matrix-white</title>
    <defs>
        <filter id="filter-1">
            <feColorMatrix in="SourceGraphic" type="matrix" values="0 0 0 0 1.000000 0 0 0 0 1.000000 0 0 0 0 1.000000 0 0 0 1.000000 0"></feColorMatrix>
        </filter>
    </defs>
    <g id="ic-matrix-white" stroke="none" stroke-width="1" fill="none" fill-rule="evenodd">
        <g filter="url(#filter-1)" id="Group-2">
            <g transform="translate(2.000000, 3.000000)">
                <g id="Group" fill="#000000">
                    <rect id="Rectangle" x="0" y="0" width="2" height="26" rx="1"></rect>
                    <rect id="Rectangle-Copy" x="0" y="0" width="4" height="2" rx="1"></rect>
                    <rect id="Rectangle-Copy-2" x="0" y="24" width="4" height="2" rx="1"></rect>
                </g>
                <g id="Group-Copy" transform="translate(26.000000, 13.000000) scale(-1, -1) translate(-26.000000, -13.000000) translate(24.000000, 0.000000)" fill="#000000">
                    <rect id="Rectangle" x="0" y="0" width="2" height="26" rx="1"></rect>
                    <rect id="Rectangle-Copy" x="0" y="0" width="4" height="2" rx="1"></rect>
                    <rect id="Rectangle-Copy-2" x="0" y="24" width="4" height="2" rx="1"></rect>
                </g>
                <path d="M8.05399869,7.83492092 L8.05399869,9.00993751 L8.05399869,9.00993751 L8.09940074,9.00993751 C8.52478754,8.37233128 9.03715406,7.87705615 9.63738287,7.52627488 C10.2372194,7.17590558 10.9248202,7 11.6993027,7 C12.4433864,7 13.1232404,7.15190909 13.7382763,7.45469738 C14.3535084,7.75800062 14.820669,8.29210268 15.1396601,9.05793048 C15.4887557,8.51569227 15.9633689,8.0369984 16.5635977,7.62226083 C17.1634343,7.20772925 17.873491,7 18.6938658,7 C19.3166485,7 19.8935389,7.07991963 20.4256156,7.23944992 C20.9569078,7.39898022 21.4125953,7.65418749 21.792384,8.00507174 C22.1717803,8.35626496 22.4679233,8.81487593 22.6810089,9.38069868 C22.8935062,9.94755131 23,10.6291339 23,11.4269914 L23,19.2058824 C23,19.4820247 22.7761424,19.7058824 22.5,19.7058824 L20.2634125,19.7058824 C19.9872701,19.7058824 19.7634125,19.4820247 19.7634125,19.2058824 L19.7634125,12.6948916 L19.7634125,12.6948916 C19.7634125,12.28036 19.7483112,11.8895159 19.7178143,11.5223594 C19.6871214,11.1557178 19.603966,10.8368632 19.4672696,10.5652806 C19.330475,10.294316 19.1289606,10.0787596 18.8635106,9.91912629 C18.5976683,9.76021393 18.2368054,9.67998533 17.781216,9.67998533 C17.3256265,9.67998533 16.9572129,9.77226367 16.6761713,9.95506952 C16.3949335,10.1388023 16.1748856,10.3782522 16.0155372,10.6730073 C15.8560907,10.9684834 15.7496949,11.3033013 15.6966441,11.678388 C15.6432011,12.0530628 15.6168228,12.4320631 15.6168228,12.814874 L15.6168228,19.2058824 C15.6168228,19.4820247 15.3929652,19.7058824 15.1168228,19.7058824 L12.8808237,19.7058824 C12.6046813,19.7058824 12.3808237,19.4820247 12.3808237,19.2058824 L12.3808237,12.766984 L12.3808237,12.766984 C12.3808237,12.4001365 12.3728808,12.0370995 12.3582698,11.678388 C12.3427762,11.3192647 12.2784485,10.9883603 12.1643059,10.6850571 C12.0503596,10.3822688 11.8603182,10.1388023 11.594672,9.95506952 C11.3288298,9.77226367 10.9376662,9.67998533 10.4213772,9.67998533 C10.2692852,9.67998533 10.0680649,9.71592857 9.81771628,9.78791803 C9.56707344,9.85970151 9.3238832,9.99554429 9.08863587,10.1946224 C8.85289823,10.3942155 8.65187405,10.6813495 8.48477882,11.0559212 C8.31758553,11.431008 8.23413598,11.9212366 8.23413598,12.5273281 L8.23413598,19.2058824 C8.23413598,19.4820247 8.01027835,19.7058824 7.73413598,19.7058824 L5.5,19.7058824 C5.22385763,19.7058824 5,19.4820247 5,19.2058824 L5,7.83492092 C5,7.55877855 5.22385763,7.33492092 5.5,7.33492092 L7.55399869,7.33492092 C7.83014107,7.33492092 8.05399869,7.55877855 8.05399869,7.83492092 Z" id="Path" fill="#000000" fill-rule="nonzero"></path>
            </g>
        </g>
    </g>
</svg>