<?xml version="1.0" encoding="UTF-8"?>
<svg width="32px" height="32px" viewBox="0 0 32 32" version="1.1" xmlns="http://www.w3.org/2000/svg" xmlns:xlink="http://www.w3.org/1999/xlink">
    <title>ic-message-a-white</title>
    <g id="ic-message-a-white" stroke="none" stroke-width="1" fill="none" fill-rule="evenodd">
        <path d="M22,5 C24.7614237,5 27,7.23857625 27,10 L27,10 L27,20 C27,22.7614237 24.7614237,25 22,25 L22,25 L13.204,25 L7.7878386,27.321751 C7.58867564,27.4071066 7.37730299,27.4593876 7.16204342,27.4768858 L7.16204342,27.4768858 L7,27.483461 C5.98205115,27.483461 5.13003708,26.7196149 5.00838759,25.6576751 L5.00838759,25.6576751 L5,25.483461 L5,10 C5,7.23857625 7.23857625,5 10,5 L10,5 Z M22,7 L10,7 C8.34314575,7 7,8.34314575 7,10 L7,10 L6.99834014,25.425868 L7,25.483 L12.7947423,23 L22,23 C23.6568542,23 25,21.6568542 25,20 L25,20 L25,10 C25,8.34314575 23.6568542,7 22,7 L22,7 Z M18,16 C18.5522847,16 19,16.4477153 19,17 C19,17.5522847 18.5522847,18 18,18 L11,18 C10.4477153,18 10,17.5522847 10,17 C10,16.4477153 10.4477153,16 11,16 L18,16 Z M21,12 C21.5522847,12 22,12.4477153 22,13 C22,13.5522847 21.5522847,14 21,14 L11,14 C10.4477153,14 10,13.5522847 10,13 C10,12.4477153 10.4477153,12 11,12 L21,12 Z" id="Combined-Shape" fill="#FFFFFF" fill-rule="nonzero"></path>
    </g>
</svg>