<?xml version="1.0" encoding="UTF-8"?>
<svg width="32px" height="32px" viewBox="0 0 32 32" version="1.1" xmlns="http://www.w3.org/2000/svg" xmlns:xlink="http://www.w3.org/1999/xlink">
    <title>ic-message-a-black</title>
    <g id="ic-message-a-black" stroke="none" stroke-width="1" fill="none" fill-rule="evenodd">
        <path d="M22,4 C24.7614237,4 27,6.23857625 27,9 L27,9 L27,19 C27,21.7614237 24.7614237,24 22,24 L22,24 L13.204,24 L7.7878386,26.321751 C7.58867564,26.4071066 7.37730299,26.4593876 7.16204342,26.4768858 L7.16204342,26.4768858 L7,26.483461 C5.98205115,26.483461 5.13003708,25.7196149 5.00838759,24.6576751 L5.00838759,24.6576751 L5,24.483461 L5,9 C5,6.23857625 7.23857625,4 10,4 L10,4 Z M22,6 L10,6 C8.34314575,6 7,7.34314575 7,9 L7,9 L6.99834014,24.425868 L7,24.483 L12.7947423,22 L22,22 C23.6568542,22 25,20.6568542 25,19 L25,19 L25,9 C25,7.34314575 23.6568542,6 22,6 L22,6 Z M18,15 C18.5522847,15 19,15.4477153 19,16 C19,16.5522847 18.5522847,17 18,17 L11,17 C10.4477153,17 10,16.5522847 10,16 C10,15.4477153 10.4477153,15 11,15 L18,15 Z M21,11 C21.5522847,11 22,11.4477153 22,12 C22,12.5522847 21.5522847,13 21,13 L11,13 C10.4477153,13 10,12.5522847 10,12 C10,11.4477153 10.4477153,11 11,11 L21,11 Z" id="Combined-Shape" fill="#000000" fill-rule="nonzero"></path>
    </g>
</svg>