<?xml version="1.0" encoding="UTF-8"?>
<svg width="32px" height="32px" viewBox="0 0 32 32" version="1.1" xmlns="http://www.w3.org/2000/svg" xmlns:xlink="http://www.w3.org/1999/xlink">
    <title>ic-phone-a-black</title>
    <g id="ic-phone-a-black" stroke="none" stroke-width="1" fill="none" fill-rule="evenodd" stroke-linecap="round" stroke-linejoin="round">
        <g id="phone-icon" transform="translate(6.000000, 5.000000)" stroke="#000000" stroke-width="2">
            <path d="M13.05,4 C15.0479895,4.38981665 16.6101833,5.95201052 17,7.95 M13.05,0 C17.2295483,0.464314241 20.5304255,3.76103943 21,7.94 M20,15.92 L20,18.92 C20.0022858,19.4831451 19.767048,20.0211584 19.3520779,20.4018649 C18.9371078,20.7825714 18.3808639,20.9706881 17.82,20.92 C14.7428339,20.5856408 11.7869992,19.5341445 9.19,17.85 C6.77382812,16.3146639 4.72533615,14.2661719 3.19,11.85 C1.49997806,9.24120398 0.448243002,6.27099456 0.12,3.18 C0.0694732103,2.62087233 0.256272008,2.06625242 0.63476578,1.65162106 C1.01325955,1.23698969 1.54859424,1.00052869 2.11,0.999901681 L5.11,0.999901681 C6.11386406,0.990119843 6.96950085,1.72596748 7.11,2.72 C7.23662301,3.68006645 7.47144946,4.62272688 7.81,5.53 C8.084735,6.26087503 7.90901507,7.08480626 7.36,7.64 L6.09,8.91 C7.51355547,11.4135458 9.58645417,13.4864445 12.09,14.91 L13.36,13.64 C13.9151937,13.0909849 14.739125,12.915265 15.47,13.19 C16.3772731,13.5285505 17.3199335,13.763377 18.28,13.89 C19.2855627,14.0318603 20.02519,14.9047926 20,15.92 L20,15.92 Z" id="Shape"></path>
        </g>
    </g>
</svg>