<?xml version="1.0" encoding="UTF-8"?>
<svg width="32px" height="32px" viewBox="0 0 32 32" version="1.1" xmlns="http://www.w3.org/2000/svg" xmlns:xlink="http://www.w3.org/1999/xlink">
    <title>ic-telegram-black</title>
    <g id="ic-telegram-black" stroke="none" stroke-width="1" fill="none" fill-rule="evenodd">
        <g id="telegram-icon" transform="translate(2.000000, 4.000000)" fill="#000000" fill-rule="nonzero">
            <path d="M21.2146576,22.9993226 C20.9970796,22.9980685 20.7863192,22.9237558 20.6166092,22.7884547 L14.3081632,17.77555 C14.2692974,17.8289702 14.2274319,17.880171 14.182766,17.9289085 L10.3243893,21.76287 C10.0920798,21.9961441 9.75581107,22.0950974 9.43312993,22.0251398 C9.11044879,21.9551821 8.84622031,21.7260402 8.73280887,21.4178135 L5.9740695,14.1045318 L0.524112369,11.392004 C0.187035371,11.2200765 -0.0175303789,10.8679823 0.00118307403,10.4919493 C0.019896527,10.1159164 0.258423013,9.7855947 0.610925846,9.6475515 L25.6903746,0.0626476037 C26.0178265,-0.0611326264 26.3870757,0.00124251578 26.6549688,0.22559097 C26.9354847,0.459203741 27.0587763,0.830450436 26.9732849,1.18408136 L22.150314,22.2708699 C22.0751044,22.5929722 21.8381274,22.8538087 21.5233277,22.960983 C21.4232028,22.9902728 21.3189575,23.003221 21.2146576,22.9993226 Z M13.0831286,14.3729091 L20.6166092,20.3634741 L24.6968426,2.49721319 L3.34072738,10.6539664 L7.19910412,12.5709472 C7.41659773,12.6782141 7.58537904,12.863041 7.67175527,13.088532 L10.035011,19.3570591 L12.8226882,16.5966068 L10.9899593,15.1301165 C10.7497647,14.951134 10.6071352,14.6712233 10.6041216,14.3729091 C10.5983766,14.0860523 10.7222568,13.8117236 10.9417295,13.6252866 L17.6938888,7.87434428 C17.9557972,7.65176111 18.3173135,7.58492808 18.6422579,7.69902055 C18.9672023,7.81311302 19.2062081,8.09079762 19.2692441,8.42747325 C19.3322801,8.76414889 19.2097697,9.10866651 18.9478613,9.33124967 L13.0831286,14.3729091 Z" id="Shape"></path>
        </g>
    </g>
</svg>