<?xml version="1.0" encoding="UTF-8"?>
<svg width="32px" height="32px" viewBox="0 0 32 32" version="1.1" xmlns="http://www.w3.org/2000/svg" xmlns:xlink="http://www.w3.org/1999/xlink">
    <title>ic-telegram-white</title>
    <g id="ic-telegram-white" stroke="none" stroke-width="1" fill="none" fill-rule="evenodd">
        <path d="M26.6582569,6.06020658 C27.3648117,5.80327757 28.0762755,6.38595199 27.9945021,7.10771103 L27.9761871,7.21693046 L23.9761871,25.2169305 C23.8327171,25.8625451 23.1211462,26.183045 22.5504762,25.8935488 L22.4452998,25.8320503 L16.504,21.872 L12.6,24.8 C12.0860742,25.1854444 11.3588913,24.9904062 11.0951684,24.4262759 L11.0513167,24.3162278 L9.168,18.667 L4.48550424,15.8574929 C3.79983763,15.446093 3.85894511,14.4539026 4.54477671,14.1090915 L4.65825694,14.0602066 L26.6582569,6.06020658 Z M25.628,8.562 L7.314,15.222 L10.5144958,17.1425071 C10.6850734,17.2448537 10.8204525,17.3952363 10.9045253,17.573575 L10.9486833,17.6837722 L12.51,22.368 L14.74,20.695 L13.4452998,19.8320503 C12.9238826,19.4844388 12.8536609,18.7582178 13.2700411,18.3161971 L13.3598156,18.2317787 L19.3598156,13.2317787 C19.7840925,12.8782146 20.4146572,12.9355387 20.7682213,13.3598156 C21.0945881,13.7514558 21.0708491,14.3188679 20.7315605,14.6819324 L20.6401844,14.7682213 L15.669,18.91 L22.34,23.358 L25.628,8.562 Z" id="Path-10-Copy" fill="#FFFFFF" fill-rule="nonzero"></path>
    </g>
</svg>