<?xml version="1.0" encoding="UTF-8"?>
<svg width="32px" height="32px" viewBox="0 0 32 32" version="1.1" xmlns="http://www.w3.org/2000/svg" xmlns:xlink="http://www.w3.org/1999/xlink">
    <title>ic-twi-black</title>
    <g id="ic-twi-black" stroke="none" stroke-width="1" fill="none" fill-rule="evenodd" stroke-linecap="round" stroke-linejoin="round">
        <g id="twitter-icon" transform="translate(5.000000, 6.000000)" stroke="#000000" stroke-width="2">
            <path d="M22,1 C21.042385,1.67547741 19.9821079,2.19210925 18.86,2.53 C17.6263595,1.11153779 15.63837,0.614114311 13.8820815,1.28445343 C12.125793,1.95479256 10.9748003,3.65030087 11,5.53 L11,6.53 C7.43066483,6.6225524 4.05202531,4.92197051 2,2 C2,2 -2,11 7,15 C4.94052756,16.3979663 2.48715691,17.0989294 1.11022302e-15,17 C9,22 20,17 20,5.5 C19.9990791,5.22145364 19.9722975,4.9435944 19.92,4.67 C20.9406031,3.66349308 21.6608274,2.39271279 22,1 Z" id="Path"></path>
        </g>
    </g>
</svg>