<?xml version="1.0" encoding="UTF-8"?>
<svg width="32px" height="32px" viewBox="0 0 32 32" version="1.1" xmlns="http://www.w3.org/2000/svg" xmlns:xlink="http://www.w3.org/1999/xlink">
    <title>ic-vk-white</title>
    <defs>
        <filter id="filter-1">
            <feColorMatrix in="SourceGraphic" type="matrix" values="0 0 0 0 1.000000 0 0 0 0 1.000000 0 0 0 0 1.000000 0 0 0 1.000000 0"></feColorMatrix>
        </filter>
    </defs>
    <g id="ic-vk-white" stroke="none" stroke-width="1" fill="none" fill-rule="evenodd">
        <g filter="url(#filter-1)" id="vk-icon">
            <g transform="translate(2.000000, 7.000000)">
                <path d="M23.6,9.41 C24.98,7.65 28.1,3.41 27.4,1.71 C27.1761336,1.17801922 26.6468092,0.839729152 26.07,0.86 L22.26,0.86 C21.9180578,0.862741688 21.6012242,1.04001762 21.42,1.33 C20.2555906,3.21994782 18.9625378,5.02754878 17.55,6.74 L17.55,2.81 C17.561019,2.28952803 17.3591136,1.78710987 16.9910019,1.41899814 C16.6228901,1.05088642 16.120472,0.848980991 15.6,0.86 L10.84,0.86 C10.574197,0.858463241 10.3187188,0.962813486 10.13,1.15 C9.68179647,1.5294819 9.48469227,2.12852407 9.62,2.7 C9.74316925,3.06353699 9.96056093,3.38789917 10.25,3.64 C10.5937566,3.89174788 10.7948557,4.29394598 10.79,4.72 L10.79,8.3 C10.12,7.71 8.84,6.07 7.01,1.49 C6.8583727,1.10927896 6.48980385,0.859603285 6.08,0.86 L1.32,0.86 C0.76771525,0.86 0.32,1.30771525 0.32,1.86 C0.32,2.41228475 0.76771525,2.86 1.32,2.86 L5.41,2.86 C7.41,7.71 9.21,10.24 10.91,10.59 C11.4752007,10.7258959 12.0709916,10.5722643 12.5,10.18 C12.6847442,9.99373936 12.7888954,9.74233988 12.79,9.48 L12.79,4.72 C12.8003198,4.05548635 12.6008652,3.4046344 12.22,2.86 L15.55,2.86 L15.55,8.52 C15.5484632,8.78580298 15.6528135,9.04128117 15.84,9.23 C16.1236916,9.51326225 16.522207,9.64979066 16.92,9.6 C18.08,9.46 20.07,7.2 22.82,2.86 L25.39,2.86 C24.3642975,4.9817345 23.0776781,6.96709237 21.56,8.77 C21.1722764,9.16003745 21.1722764,9.78996255 21.56,10.18 C24.56,13.13 25.35,14.56 25.56,15.18 L22.33,15.18 C21.8442413,14.782358 21.4137688,14.321618 21.05,13.81 C20.4621979,13.057312 19.8311332,12.3394341 19.16,11.66 C18.75,11.25 17.67,10.16 16.55,10.66 C15.8958589,10.9796359 15.5004878,11.663628 15.55,12.39 L15.55,15 C14.9433034,15.1360844 14.3210521,15.1899007 13.7,15.16 C8.95,15.16 5.28,8.58 3.51,4.65 C3.26368304,4.18258321 2.69625288,3.9874341 2.21454103,4.20446911 C1.73282918,4.42150412 1.50307246,4.97582534 1.69,5.47 C3.69,9.84 7.83,17.16 13.69,17.16 C14.84,17.16 17.54,17.16 17.54,15.21 L17.54,12.85 L17.74,13.04 C18.359452,13.674178 18.9436624,14.341847 19.49,15.04 C20.44,16.21 21.19,17.14 22.25,17.14 L26.06,17.14 C26.709961,17.1359713 27.2937493,16.7415198 27.54,16.14 C27.94,15.23 27.75,13.68 23.6,9.41 Z" id="Path" fill="#010101" fill-rule="nonzero"></path>
            </g>
        </g>
    </g>
</svg>