<?xml version="1.0" encoding="UTF-8"?>
<svg width="32px" height="32px" viewBox="0 0 32 32" version="1.1" xmlns="http://www.w3.org/2000/svg" xmlns:xlink="http://www.w3.org/1999/xlink">
    <title>ic-youtube-white</title>
    <g id="ic-youtube-white" stroke="none" stroke-width="1" fill="none" fill-rule="evenodd">
        <path d="M24,6 C26.7614237,6 29,8.23857625 29,11 L29,11 L29,21 C29,23.7614237 26.7614237,26 24,26 L24,26 L8,26 C5.23857625,26 3,23.7614237 3,21 L3,21 L3,11 C3,8.23857625 5.23857625,6 8,6 L8,6 Z M24,8 L8,8 C6.34314575,8 5,9.34314575 5,11 L5,11 L5,21 C5,22.6568542 6.34314575,24 8,24 L8,24 L24,24 C25.6568542,24 27,22.6568542 27,21 L27,21 L27,11 C27,9.34314575 25.6568542,8 24,8 L24,8 Z M14,12 L20,16 L14,20 L14,12 Z" id="Combined-Shape" fill="#FFFFFF" fill-rule="nonzero"></path>
    </g>
</svg>