<?xml version="1.0" standalone="no"?>
<!DOCTYPE svg PUBLIC "-//W3C//DTD SVG 20010904//EN"
 "http://www.w3.org/TR/2001/REC-SVG-20010904/DTD/svg10.dtd">
<svg version="1.0" xmlns="http://www.w3.org/2000/svg"
 width="800.000000pt" height="800.000000pt" viewBox="0 0 800.000000 800.000000"
 preserveAspectRatio="xMidYMid meet">
<metadata>
Created by potrace 1.14, written by Peter Selinger 2001-2017
</metadata>
<g transform="translate(0.000000,800.000000) scale(0.100000,-0.100000)"
fill="#000000" stroke="none">
<path d="M2578 5858 c-11 -16 -35 -32 -57 -38 -25 -6 -68 -37 -120 -83 -102
-91 -294 -297 -328 -351 -35 -55 -110 -141 -285 -323 -169 -176 -248 -268
-248 -289 0 -8 -98 -115 -218 -237 l-219 -222 -6 -63 c-4 -41 -14 -73 -27 -89
-25 -32 -25 -45 0 -68 11 -10 24 -43 31 -77 8 -41 23 -75 48 -108 46 -61 911
-940 1056 -1073 98 -90 111 -106 120 -146 8 -39 23 -58 87 -120 73 -69 80 -73
135 -80 32 -4 71 -16 88 -26 26 -18 55 -21 290 -27 343 -8 3077 -8 3412 1 252
6 263 7 286 29 13 12 30 22 39 22 19 0 77 42 151 110 l59 54 -4 1490 c-3 1382
-4 1493 -20 1521 -24 42 -34 65 -44 100 -5 16 -20 35 -34 42 -123 60 -82 55
-500 64 -212 4 -1125 9 -2029 11 l-1643 3 -20 -27z m525 -417 c128 -8 141 -11
179 -37 40 -28 45 -29 166 -29 l124 0 27 33 27 32 870 0 869 0 78 -78 78 -78
-58 -64 c-76 -84 -220 -209 -259 -226 -33 -14 -184 -146 -274 -239 -30 -31
-75 -66 -99 -76 -46 -20 -92 -54 -143 -104 -29 -29 -34 -30 -118 -30 -77 0
-91 3 -126 26 -21 15 -52 30 -69 34 -38 8 -78 39 -188 142 -48 46 -111 96
-140 113 -28 16 -99 73 -157 125 -58 53 -134 114 -170 135 -36 21 -85 59 -110
84 -41 43 -47 46 -95 45 -27 -1 -74 -4 -104 -7 -53 -7 -54 -8 -66 -49 -7 -23
-22 -53 -33 -67 -11 -14 -23 -41 -26 -60 -8 -41 9 -124 31 -148 8 -9 21 -34
28 -55 10 -30 23 -43 63 -64 28 -14 101 -71 164 -127 62 -56 132 -111 155
-122 48 -23 221 -185 281 -263 21 -28 42 -64 46 -80 4 -15 16 -37 27 -48 12
-12 18 -27 14 -38 -10 -32 -307 -315 -365 -348 -30 -17 -88 -61 -128 -98 -41
-36 -98 -77 -128 -90 -30 -13 -57 -32 -60 -42 -13 -42 -37 -81 -79 -131 -43
-51 -45 -55 -45 -118 l0 -66 73 -75 c39 -41 89 -88 110 -105 l37 -30 57 52
c31 28 75 60 98 71 22 11 95 67 161 125 65 58 136 114 156 124 37 20 86 63
252 218 49 47 111 94 140 107 28 14 67 34 86 45 27 16 53 20 117 20 76 0 85
-2 115 -29 18 -16 49 -35 69 -44 20 -8 74 -49 120 -91 46 -42 105 -88 132
-102 26 -13 115 -87 198 -164 104 -96 162 -143 186 -149 20 -6 47 -20 60 -33
22 -21 36 -23 143 -26 135 -4 179 9 211 62 26 42 26 186 0 186 -3 0 -97 89
-207 198 -136 133 -229 217 -285 254 -46 31 -121 90 -166 133 l-83 77 0 97 c0
92 2 100 29 137 50 69 156 162 217 191 45 21 98 66 229 193 94 91 196 189 228
218 l57 53 0 95 c0 106 -4 116 -68 192 l-45 53 30 37 c21 26 46 42 83 54 29
10 64 28 78 40 22 22 31 23 180 23 185 0 195 -4 279 -103 l53 -62 0 -1119 0
-1118 -58 -55 c-100 -96 -87 -93 -402 -93 l-275 0 -46 28 c-25 15 -53 27 -61
27 -8 0 -33 -12 -54 -27 l-39 -28 -1002 -3 c-953 -3 -1002 -2 -1012 15 -28 49
-28 49 -61 18 l-31 -30 -263 0 -262 0 -33 28 c-18 15 -43 27 -57 27 -30 0
-143 107 -565 535 -391 396 -435 445 -458 498 -10 23 -28 51 -40 61 -18 16
-21 30 -21 91 0 64 3 74 25 95 16 15 28 39 31 64 5 37 21 56 153 186 217 213
331 339 353 390 15 33 79 104 247 272 191 190 234 228 269 237 22 7 54 23 70
36 57 48 63 49 275 36z"/>
</g>
</svg>
