<?xml version="1.0" encoding="UTF-8" standalone="no"?>
<!-- Created with Inkscape (http://www.inkscape.org/) -->

<svg
   xmlns:dc="http://purl.org/dc/elements/1.1/"
   xmlns:cc="http://creativecommons.org/ns#"
   xmlns:rdf="http://www.w3.org/1999/02/22-rdf-syntax-ns#"
   xmlns:svg="http://www.w3.org/2000/svg"
   xmlns="http://www.w3.org/2000/svg"
   xmlns:sodipodi="http://sodipodi.sourceforge.net/DTD/sodipodi-0.dtd"
   xmlns:inkscape="http://www.inkscape.org/namespaces/inkscape"
   width="90px"
   height="60px"
   viewBox="0 0 90 60"
   version="1.1"
   id="SVGRoot"
   inkscape:version="0.92.3 (2405546, 2018-03-11)"
   sodipodi:docname="drawing-1.svg">
  <sodipodi:namedview
     id="base"
     pagecolor="#ffffff"
     bordercolor="#666666"
     borderopacity="1.0"
     inkscape:pageopacity="0.0"
     inkscape:pageshadow="2"
     inkscape:zoom="8.0453038"
     inkscape:cx="43.043565"
     inkscape:cy="31.09835"
     inkscape:document-units="px"
     inkscape:current-layer="layer1"
     showgrid="false"
     inkscape:window-width="1920"
     inkscape:window-height="1012"
     inkscape:window-x="0"
     inkscape:window-y="32"
     inkscape:window-maximized="1" />
  <defs
     id="defs4321" />
  <metadata
     id="metadata4324">
    <rdf:RDF>
      <cc:Work
         rdf:about="">
        <dc:format>image/svg+xml</dc:format>
        <dc:type
           rdf:resource="http://purl.org/dc/dcmitype/StillImage" />
        <dc:title></dc:title>
      </cc:Work>
    </rdf:RDF>
  </metadata>
  <g
     id="layer1"
     inkscape:groupmode="layer"
     inkscape:label="Layer 1">
    <g
       transform="matrix(0.01875,0,0,0.01875,-12.043379,-24.852533)"
       style="fill:#F5E734;stroke:none"
       id="layer103">
      <path
         inkscape:connector-curvature="0"
         d="m 2135,4080 c -13,-14 -31,-20 -60,-20 -37,0 -46,-5 -81,-45 -21,-24 -45,-45 -51,-45 -8,0 -13,-14 -13,-35 0,-22 -6,-38 -17,-44 -10,-5 -70,-62 -133,-126 -63,-63 -139,-139 -168,-168 -29,-29 -65,-65 -80,-80 -15,-15 -113,-115 -218,-221 -188,-189 -192,-194 -199,-244 -4,-29 -13,-53 -21,-56 -18,-7 -18,-30 1,-46 9,-8 15,-30 15,-56 0,-42 4,-48 76,-117 42,-39 88,-85 103,-102 14,-16 47,-51 74,-77 26,-26 47,-55 47,-65 0,-10 77,-97 172,-193 99,-101 172,-184 174,-197 1,-12 60,-79 137,-157 103,-104 141,-136 160,-136 15,0 32,-9 42,-22 l 15,-23 1353,3 c 1100,3 1353,6 1359,17 4,7 20,16 35,20 38,9 53,23 53,49 0,12 9,29 20,39 20,17 20,29 20,1020 v 1003 l -55,52 c -30,29 -63,52 -73,52 -11,0 -27,9 -37,20 -18,20 -31,20 -1325,20 -1294,0 -1307,0 -1325,-20 z m 514,-291 19,-21 14,21 13,21 h 671 c 658,0 671,0 689,-20 10,-11 28,-20 40,-20 12,0 32,9 45,20 21,18 37,20 210,20 206,0 197,2 278,-75 l 32,-30 v -746 -746 l -27,-34 c -60,-77 -76,-84 -194,-84 -98,0 -110,2 -131,23 -14,12 -35,22 -49,22 -15,0 -34,12 -51,33 l -26,34 39,43 c 37,41 39,45 39,111 v 69 l -47,42 c -27,24 -96,91 -155,150 -65,66 -117,110 -135,114 -26,6 -44,19 -76,52 -6,7 -31,32 -54,55 -42,41 -43,43 -43,110 v 68 l 72,70 c 40,38 84,72 98,76 14,3 75,55 135,116 61,60 121,119 136,131 14,12 28,29 32,39 3,9 13,17 22,17 12,0 15,12 15,55 0,48 -4,59 -27,80 -25,22 -38,24 -114,25 -73,0 -89,-3 -104,-20 -10,-11 -27,-20 -38,-20 -11,0 -40,-20 -66,-44 -25,-24 -75,-71 -110,-105 -35,-34 -72,-61 -82,-61 -10,0 -47,-29 -83,-65 -38,-38 -74,-65 -86,-65 -11,0 -30,-11 -42,-25 -19,-22 -30,-25 -83,-25 -49,0 -68,5 -95,25 -19,14 -42,25 -51,25 -10,0 -65,47 -124,105 -58,58 -114,105 -123,105 -9,0 -58,38 -107,85 -50,46 -98,85 -109,85 -10,0 -36,18 -58,40 -22,22 -42,40 -43,40 -1,0 -35,-30 -74,-67 -69,-64 -71,-68 -71,-114 0,-41 5,-51 40,-87 22,-22 40,-49 40,-60 0,-23 15,-37 51,-46 15,-3 51,-30 80,-59 30,-30 65,-58 79,-62 29,-9 111,-82 214,-193 48,-51 48,-51 27,-69 -12,-9 -21,-29 -21,-42 0,-30 -188,-221 -218,-221 -10,0 -58,-38 -107,-84 -56,-55 -97,-86 -114,-88 -20,-2 -27,-9 -29,-29 -2,-15 -12,-35 -23,-45 -25,-23 -28,-118 -3,-132 9,-5 19,-24 23,-43 l 7,-34 69,-3 69,-3 38,40 c 20,22 49,44 64,47 15,4 63,42 107,86 44,43 91,81 105,85 14,3 54,34 88,67 82,82 114,106 140,106 11,0 29,9 39,20 15,16 31,20 86,20 58,0 70,-3 79,-20 6,-11 15,-20 20,-20 5,0 20,-11 34,-25 14,-14 34,-25 44,-25 10,0 35,-17 55,-37 109,-113 176,-173 193,-173 17,0 127,-99 191,-171 l 23,-25 -52,-54 -51,-54 h -583 l -584,-1 -15,23 c -15,20 -24,22 -102,22 -74,0 -90,-3 -109,-21 -20,-18 -38,-22 -146,-26 -122,-5 -123,-5 -151,21 -15,14 -37,26 -49,26 -22,0 -37,13 -224,197 -88,86 -124,128 -124,145 0,22 -111,141 -282,303 -44,41 -58,61 -58,82 0,17 -8,33 -20,41 -16,10 -20,23 -20,67 0,44 4,56 20,65 11,6 20,21 20,34 0,23 50,77 336,366 306,309 328,330 356,330 17,0 31,8 38,20 10,19 21,20 190,20 169,0 180,-1 199,-21 z"
         id="path4008" />
    </g>
  </g>
</svg>
